<svg xmlns="http://www.w3.org/2000/svg" xmlns:xlink="http://www.w3.org/1999/xlink" width="576" zoomAndPan="magnify" viewBox="0 0 432 287.999989" height="384" preserveAspectRatio="xMidYMid meet" version="1.0"><defs><g/></defs><g fill="rgb(45.098877%, 45.098877%, 45.098877%)" fill-opacity="1"><g transform="translate(58.715775, 171.615953)"><g><path d="M 20.65625 -16.550781 C 20.789062 -16.816406 20.523438 -17.082031 20.257812 -17.210938 L 20.257812 -17.476562 C 20.257812 -17.742188 20.257812 -18.007812 20.523438 -18.007812 C 20.523438 -18.007812 20.65625 -17.875 20.789062 -17.875 C 21.183594 -17.742188 21.714844 -17.609375 21.714844 -16.816406 L 21.714844 -14.300781 C 21.714844 -13.503906 22.113281 -12.710938 22.242188 -11.917969 C 22.375 -8.078125 24.757812 -5.429688 27.539062 -3.046875 C 27.671875 -2.914062 28.070312 -2.914062 28.203125 -2.78125 C 28.46875 -2.648438 28.730469 -2.515625 28.996094 -2.515625 C 30.71875 -2.515625 36.015625 -6.886719 37.207031 -8.078125 C 37.734375 -8.472656 37.46875 -9.136719 37.867188 -9.53125 C 38.265625 -9.796875 38.792969 -10.195312 39.191406 -10.59375 C 39.324219 -10.726562 39.324219 -10.988281 39.191406 -10.988281 L 38.792969 -10.988281 C 36.410156 -9.402344 34.160156 -7.8125 31.644531 -6.621094 C 30.851562 -6.222656 30.054688 -6.089844 29.261719 -6.089844 C 28.863281 -6.089844 28.46875 -6.089844 28.070312 -6.222656 C 26.878906 -7.8125 26.347656 -9.796875 26.347656 -11.785156 C 26.347656 -18.667969 29.792969 -33.367188 32.570312 -38.925781 C 33.5 -40.515625 33.632812 -42.238281 33.367188 -43.957031 C 32.703125 -44.355469 32.042969 -44.753906 31.378906 -44.753906 C 30.984375 -44.753906 30.585938 -44.621094 30.1875 -44.355469 C 30.054688 -44.222656 29.792969 -44.222656 29.660156 -44.222656 C 29.394531 -44.222656 29.261719 -44.222656 28.996094 -44.355469 C 27.144531 -45.28125 25.289062 -45.28125 23.304688 -45.28125 C 20.125 -45.148438 17.34375 -44.355469 14.828125 -42.238281 C 13.769531 -41.308594 12.710938 -40.117188 11.386719 -39.589844 C 11.253906 -39.457031 11.121094 -39.324219 11.121094 -39.191406 C 10.726562 -38.398438 10.0625 -37.601562 9.402344 -37.339844 C 8.339844 -36.808594 8.605469 -35.617188 7.679688 -34.953125 C 4.898438 -32.4375 2.914062 -28.335938 1.324219 -24.890625 C 1.058594 -24.628906 0.925781 -24.363281 0.792969 -24.097656 C -1.589844 -16.816406 -2.78125 -12.3125 -2.78125 -4.371094 C -2.78125 -1.855469 -1.855469 0.398438 0.132812 2.117188 L 1.058594 3.046875 C 1.457031 3.441406 1.984375 3.707031 2.648438 3.707031 C 3.308594 3.574219 4.105469 3.574219 4.765625 3.175781 C 6.753906 2.25 11.386719 -0.792969 12.445312 -2.515625 C 12.710938 -2.914062 13.503906 -3.046875 13.769531 -3.574219 C 14.167969 -4.371094 14.828125 -5.03125 15.359375 -5.695312 C 14.960938 -6.753906 16.285156 -7.28125 16.417969 -8.078125 C 16.550781 -8.871094 17.082031 -9.664062 17.476562 -10.328125 C 17.742188 -11.121094 18.140625 -11.785156 18.667969 -12.578125 C 18.933594 -13.109375 19.332031 -13.503906 19.199219 -14.167969 C 20.125 -14.566406 20.390625 -15.625 20.65625 -16.550781 Z M 2.914062 0.265625 C 2.78125 0.398438 2.515625 0.398438 2.25 0.53125 C 1.984375 0.265625 1.722656 0.132812 1.722656 0 C 1.457031 -0.265625 1.457031 -0.660156 1.457031 -0.925781 C 1.457031 -1.855469 1.457031 -2.78125 1.058594 -3.707031 C 0.925781 -3.972656 0.925781 -4.371094 1.058594 -4.765625 C 1.589844 -6.621094 1.589844 -8.472656 1.855469 -10.460938 C 2.117188 -11.121094 2.25 -11.917969 2.382812 -12.578125 C 3.175781 -14.960938 3.574219 -17.476562 4.632812 -19.726562 C 5.296875 -21.183594 5.695312 -22.640625 6.355469 -23.964844 C 6.621094 -24.496094 7.015625 -24.890625 7.28125 -25.421875 C 7.8125 -26.613281 8.738281 -27.539062 9.003906 -28.730469 C 9.136719 -28.863281 9.136719 -29.128906 9.269531 -29.261719 C 10.59375 -30.1875 11.253906 -31.644531 12.578125 -32.703125 C 13.636719 -33.632812 14.566406 -34.953125 15.757812 -35.882812 C 17.742188 -37.339844 19.597656 -38.792969 21.980469 -39.722656 C 23.304688 -40.25 24.496094 -41.046875 25.554688 -42.105469 C 25.953125 -42.371094 26.082031 -42.503906 26.347656 -42.503906 C 26.613281 -42.503906 26.746094 -42.371094 27.011719 -42.105469 C 27.804688 -41.441406 27.9375 -41.046875 27.539062 -40.117188 C 26.878906 -38.53125 26.082031 -36.941406 25.6875 -35.21875 C 25.421875 -33.367188 23.964844 -28.863281 23.039062 -27.144531 C 21.847656 -24.496094 20.523438 -21.847656 19.199219 -19.066406 C 18.535156 -17.34375 17.34375 -15.757812 16.285156 -14.167969 C 15.492188 -12.578125 14.433594 -11.121094 13.636719 -9.53125 C 10.988281 -5.296875 7.015625 -2.382812 2.914062 0.265625 Z M 19.199219 -15.625 C 19.332031 -15.757812 19.332031 -15.886719 19.332031 -16.019531 L 19.597656 -15.757812 C 19.597656 -15.625 19.464844 -15.492188 19.332031 -15.359375 C 19.332031 -15.492188 19.199219 -15.492188 19.199219 -15.625 Z M 4.105469 -28.203125 L 4.238281 -28.203125 L 4.238281 -28.070312 Z M 21.582031 -19.992188 L 21.449219 -19.992188 L 21.449219 -20.125 Z M 3.707031 -27.277344 L 3.707031 -27.144531 L 3.574219 -27.144531 Z M 16.816406 -11.253906 L 16.816406 -11.519531 Z M 16.816406 -11.253906 "/></g></g></g><g fill="rgb(45.098877%, 45.098877%, 45.098877%)" fill-opacity="1"><g transform="translate(93.801215, 171.615953)"><g><path d="M 8.738281 -27.804688 C 10.460938 -26.613281 12.445312 -25.6875 14.433594 -24.628906 C 13.902344 -24.097656 13.636719 -23.832031 13.503906 -23.4375 C 13.371094 -22.773438 13.109375 -22.113281 12.050781 -21.980469 C 11.386719 -21.980469 11.121094 -21.582031 10.726562 -21.316406 C 10.726562 -21.050781 10.460938 -20.65625 10.328125 -20.65625 C 10.0625 -20.65625 9.796875 -20.789062 9.664062 -20.789062 C 8.871094 -20.789062 8.605469 -20.257812 8.339844 -19.726562 C 8.472656 -19.464844 8.339844 -19.332031 8.078125 -19.332031 C 6.886719 -18.933594 6.222656 -18.140625 5.5625 -17.476562 C 5.03125 -17.210938 4.632812 -16.949219 4.371094 -16.683594 C 2.117188 -15.757812 0.398438 -14.566406 -0.398438 -12.578125 C -1.324219 -11.386719 -1.589844 -10.0625 -2.648438 -8.605469 C -3.046875 -7.8125 -2.914062 -7.015625 -2.78125 -6.222656 C -2.117188 -3.441406 -0.925781 -1.058594 1.191406 0.925781 C 2.382812 2.78125 4.765625 3.441406 6.753906 3.707031 C 8.078125 3.707031 9.53125 3.441406 10.460938 3.046875 C 12.445312 2.382812 14.433594 1.589844 15.625 0 C 15.886719 -0.265625 16.285156 -0.53125 16.816406 -0.925781 C 19.597656 -2.914062 20.523438 -3.308594 21.847656 -5.695312 C 22.242188 -6.621094 22.90625 -7.414062 23.4375 -8.078125 C 23.699219 -8.472656 23.699219 -8.871094 23.964844 -9.402344 C 25.289062 -11.386719 25.554688 -13.636719 26.082031 -16.019531 L 26.082031 -16.683594 C 25.953125 -18.402344 24.496094 -20.257812 23.832031 -21.847656 C 23.566406 -22.90625 22.640625 -23.699219 21.847656 -24.363281 C 21.316406 -24.890625 21.449219 -25.15625 21.847656 -25.421875 C 22.113281 -25.6875 22.113281 -25.820312 22.507812 -25.953125 C 25.023438 -27.144531 37.207031 -29.921875 39.855469 -30.585938 C 40.515625 -30.71875 41.179688 -30.984375 41.707031 -31.246094 C 42.105469 -31.378906 42.105469 -31.511719 42.105469 -31.644531 C 41.839844 -31.910156 41.441406 -32.175781 41.046875 -32.175781 L 40.515625 -32.175781 C 39.191406 -31.378906 37.601562 -31.378906 36.277344 -30.851562 C 35.085938 -30.320312 24.363281 -28.070312 22.90625 -27.539062 C 22.242188 -27.40625 21.714844 -27.144531 21.050781 -26.746094 C 20.523438 -26.480469 19.992188 -26.347656 19.464844 -26.347656 C 18.800781 -26.347656 18.140625 -26.613281 17.476562 -27.011719 C 16.019531 -27.539062 14.035156 -28.730469 12.84375 -29.660156 C 11.386719 -30.585938 11.121094 -31.777344 11.652344 -32.835938 C 12.3125 -33.761719 13.109375 -34.691406 13.769531 -35.882812 C 14.167969 -37.074219 15.09375 -37.867188 16.683594 -38.398438 C 17.476562 -38.664062 18.402344 -39.191406 18.933594 -39.722656 C 20.523438 -40.78125 21.847656 -41.441406 23.699219 -41.707031 C 25.953125 -41.839844 27.40625 -42.632812 28.996094 -43.296875 C 29.660156 -43.429688 31.777344 -43.824219 32.175781 -43.824219 C 32.570312 -43.824219 33.234375 -43.824219 33.5 -43.957031 C 34.425781 -44.222656 34.824219 -44.488281 34.824219 -45.019531 C 34.824219 -45.679688 34.027344 -46.078125 33.5 -46.339844 C 32.308594 -46.738281 31.378906 -47.136719 30.1875 -47.136719 C 29.128906 -47.136719 28.203125 -47.269531 27.144531 -47.402344 C 24.757812 -47.796875 23.566406 -48.0625 22.640625 -48.0625 C 21.847656 -48.0625 21.183594 -47.796875 19.859375 -47.535156 C 18.800781 -47.269531 17.476562 -46.605469 16.417969 -46.210938 C 12.3125 -44.355469 9.269531 -41.574219 7.28125 -38 C 6.355469 -36.808594 5.957031 -34.953125 5.5625 -33.5 C 5.429688 -33.101562 5.5625 -32.703125 5.957031 -32.308594 C 6.621094 -31.511719 7.414062 -30.71875 7.414062 -29.527344 C 7.414062 -28.863281 8.210938 -28.335938 8.738281 -27.804688 Z M 18.800781 -21.582031 C 19.199219 -21.183594 19.199219 -20.789062 19.332031 -20.390625 C 19.726562 -17.742188 19.332031 -15.359375 18.007812 -13.109375 C 15.359375 -8.472656 11.121094 -3.707031 6.089844 -1.722656 C 5.5625 -1.589844 5.03125 -1.324219 4.371094 -1.324219 C 4.105469 -1.324219 3.839844 -1.324219 3.574219 -1.324219 C 3.046875 -1.324219 2.515625 -1.324219 1.722656 -1.722656 C 1.058594 -2.25 1.058594 -3.175781 0.398438 -3.972656 C 0.398438 -3.972656 0.398438 -4.105469 0.265625 -4.238281 C 1.058594 -5.824219 0.398438 -7.546875 1.058594 -9.402344 C 2.117188 -12.578125 5.03125 -16.417969 8.210938 -17.742188 C 8.472656 -18.007812 8.871094 -18.273438 9.53125 -18.535156 C 10.988281 -19.066406 12.179688 -19.992188 13.503906 -20.921875 C 14.300781 -21.582031 15.757812 -21.980469 16.683594 -22.640625 C 16.816406 -22.640625 16.949219 -22.773438 17.082031 -22.773438 C 17.742188 -22.773438 18.535156 -22.242188 18.800781 -21.582031 Z M 12.976562 -3.046875 C 12.84375 -3.046875 12.578125 -3.046875 12.84375 -3.308594 C 12.84375 -3.308594 12.3125 -3.441406 12.445312 -3.574219 C 12.976562 -5.164062 14.300781 -6.222656 15.625 -7.148438 C 15.886719 -7.28125 15.359375 -7.148438 15.886719 -7.015625 C 15.886719 -7.015625 16.285156 -6.621094 16.019531 -6.621094 C 15.09375 -5.5625 14.167969 -4.371094 12.976562 -3.046875 Z M 17.609375 -9.003906 C 17.34375 -8.605469 17.210938 -8.210938 16.683594 -7.945312 L 16.285156 -7.945312 L 16.152344 -8.078125 C 16.285156 -8.472656 16.417969 -9.003906 16.683594 -9.664062 C 16.816406 -9.929688 17.609375 -10.195312 17.609375 -9.929688 C 17.875 -9.664062 17.875 -9.53125 17.609375 -9.003906 Z M 8.605469 -0.265625 C 8.472656 -0.265625 8.339844 -0.265625 8.210938 -0.398438 C 8.210938 -1.058594 8.738281 -1.324219 9.796875 -1.324219 C 9.929688 -0.398438 9.929688 -0.398438 8.605469 -0.265625 Z M 18.800781 -10.988281 C 18.667969 -10.855469 18.535156 -10.726562 18.402344 -10.726562 C 18.273438 -10.726562 18.273438 -10.855469 18.007812 -10.855469 C 18.273438 -10.988281 18.402344 -11.253906 18.402344 -11.386719 L 18.667969 -11.386719 C 18.800781 -11.253906 18.800781 -10.988281 18.800781 -10.988281 Z M 7.015625 0 C 7.148438 -0.132812 7.148438 -0.265625 7.148438 -0.265625 L 8.078125 -0.265625 C 8.078125 -0.132812 8.078125 0 7.8125 0 Z M 11.785156 -3.175781 L 11.917969 -3.046875 L 11.785156 -3.046875 Z M 8.871094 1.457031 L 8.738281 1.457031 L 8.738281 1.324219 Z M 8.871094 1.457031 "/></g></g></g><g fill="rgb(45.098877%, 45.098877%, 45.098877%)" fill-opacity="1"><g transform="translate(124.7823, 171.615953)"><g><path d="M 48.0625 -9.664062 C 46.605469 -8.605469 45.28125 -7.546875 44.089844 -6.222656 C 42.898438 -4.898438 41.441406 -3.972656 39.984375 -2.914062 C 39.722656 -2.648438 39.324219 -2.515625 39.058594 -2.515625 C 38.398438 -2.515625 37.734375 -2.914062 37.339844 -3.574219 C 37.074219 -3.839844 36.941406 -4.105469 36.941406 -4.5 C 36.542969 -5.957031 36.148438 -7.414062 35.484375 -8.871094 C 35.484375 -9.136719 35.484375 -9.402344 35.484375 -9.53125 C 35.882812 -10.460938 35.617188 -11.386719 35.484375 -12.3125 C 35.484375 -13.242188 35.21875 -14.035156 35.351562 -14.828125 C 35.617188 -15.757812 35.484375 -16.683594 35.484375 -17.609375 C 35.484375 -18.535156 35.085938 -19.464844 35.617188 -20.257812 C 35.617188 -21.980469 36.148438 -23.566406 36.148438 -25.15625 C 36.148438 -26.613281 36.542969 -27.804688 36.277344 -29.128906 C 36.015625 -30.585938 37.207031 -31.644531 37.074219 -32.96875 C 37.074219 -33.367188 37.339844 -33.761719 37.207031 -34.160156 C 37.207031 -35.351562 37.734375 -36.410156 37.46875 -37.734375 C 38 -39.984375 38.132812 -42.371094 38.53125 -44.753906 C 38.664062 -45.8125 38.398438 -46.605469 37.734375 -47.535156 C 37.074219 -48.328125 36.148438 -48.726562 35.351562 -49.253906 C 35.21875 -49.386719 35.085938 -49.386719 34.953125 -49.386719 C 34.160156 -49.386719 31.378906 -48.328125 30.71875 -47.796875 C 23.171875 -42.765625 20.257812 -39.191406 15.359375 -31.644531 C 12.976562 -27.804688 10.59375 -23.832031 8.210938 -19.859375 C 7.546875 -18.800781 7.148438 -17.609375 6.089844 -16.816406 C 5.957031 -16.683594 5.957031 -16.550781 5.957031 -16.417969 C 5.5625 -16.816406 5.957031 -16.683594 6.089844 -16.816406 C 6.089844 -17.476562 6.089844 -18.273438 6.222656 -18.933594 C 6.222656 -19.726562 6.886719 -20.257812 7.28125 -20.789062 C 7.546875 -21.183594 7.546875 -21.582031 7.679688 -21.980469 C 8.210938 -23.964844 8.472656 -26.082031 9.269531 -28.070312 C 9.664062 -29.261719 10.0625 -30.585938 10.0625 -31.910156 C 10.0625 -33.101562 10.726562 -33.632812 11.121094 -34.558594 C 11.386719 -35.484375 10.855469 -36.675781 11.519531 -37.46875 C 12.050781 -38.398438 12.445312 -39.324219 12.445312 -40.515625 C 13.242188 -42.105469 13.371094 -44.089844 14.035156 -45.8125 C 14.433594 -47.003906 14.566406 -48.328125 14.828125 -49.652344 C 14.960938 -50.445312 14.960938 -51.242188 15.359375 -52.035156 C 16.019531 -53.757812 16.417969 -55.476562 16.949219 -57.332031 C 17.476562 -59.449219 23.4375 -84.738281 24.230469 -86.726562 C 24.230469 -86.859375 24.230469 -86.859375 24.230469 -86.988281 C 24.757812 -88.84375 25.15625 -90.828125 25.820312 -92.550781 C 26.082031 -93.214844 26.347656 -94.007812 26.347656 -94.667969 C 26.347656 -96.125 26.746094 -97.316406 27.144531 -98.640625 C 27.804688 -101.820312 28.335938 -105.261719 29.792969 -108.175781 C 30.1875 -109.101562 29.921875 -110.027344 29.921875 -110.957031 C 29.792969 -111.484375 29.527344 -111.882812 29.128906 -112.28125 C 28.597656 -112.675781 28.070312 -113.339844 27.40625 -113.601562 C 27.144531 -113.734375 26.746094 -113.867188 26.480469 -113.867188 C 26.214844 -113.867188 26.082031 -113.867188 25.820312 -113.734375 C 24.496094 -113.472656 23.832031 -112.675781 23.4375 -111.617188 C 23.039062 -110.425781 22.773438 -109.234375 22.507812 -108.042969 C 21.847656 -104.863281 21.183594 -101.820312 20.65625 -98.640625 C 19.859375 -94.800781 18.667969 -91.09375 18.007812 -87.121094 C 18.007812 -86.988281 18.007812 -86.859375 17.875 -86.726562 C 16.550781 -82.355469 9.796875 -54.949219 8.738281 -50.445312 C 7.679688 -46.078125 6.488281 -41.574219 5.296875 -37.207031 C 4.632812 -35.21875 4.371094 -33.101562 3.574219 -31.113281 C 3.441406 -28.730469 2.515625 -26.480469 1.855469 -24.230469 C 0.925781 -21.847656 0.398438 -19.199219 -0.398438 -16.816406 C -1.457031 -13.902344 -2.25 -10.726562 -3.175781 -7.679688 C -3.972656 -5.03125 -4.632812 -2.382812 -5.695312 0.132812 C -6.089844 0.925781 -5.5625 1.855469 -4.765625 1.855469 C -3.441406 2.117188 -2.78125 2.648438 -2.25 3.839844 C -1.984375 4.371094 -1.722656 4.5 -1.457031 4.5 C -1.191406 4.5 -1.058594 4.371094 -0.792969 4.238281 C 0.398438 3.175781 0.925781 1.722656 1.722656 0.398438 C 3.574219 -2.382812 4.898438 -5.5625 6.753906 -8.339844 C 6.886719 -8.472656 6.886719 -8.871094 6.886719 -9.003906 C 7.015625 -9.269531 7.015625 -9.53125 7.28125 -9.664062 C 7.945312 -9.929688 8.210938 -10.460938 8.339844 -11.121094 C 8.605469 -11.917969 9.136719 -12.578125 9.664062 -13.109375 C 10.460938 -14.300781 11.386719 -15.492188 11.652344 -16.949219 C 11.785156 -18.140625 12.3125 -19.066406 13.109375 -19.992188 C 13.769531 -20.523438 14.167969 -21.183594 14.433594 -21.980469 C 14.828125 -22.90625 14.960938 -23.832031 16.019531 -24.363281 C 16.152344 -24.496094 16.285156 -24.890625 16.417969 -25.15625 C 16.816406 -26.878906 18.402344 -28.070312 18.667969 -29.921875 C 18.667969 -30.1875 18.933594 -30.453125 19.199219 -30.585938 C 20.125 -31.113281 20.65625 -31.910156 21.183594 -32.703125 C 21.714844 -33.761719 22.507812 -34.691406 23.171875 -35.617188 C 24.628906 -37.207031 25.953125 -38.792969 27.40625 -40.382812 C 28.335938 -41.308594 29.921875 -42.371094 31.246094 -42.898438 C 31.378906 -41.972656 31.644531 -40.914062 31.246094 -39.984375 C 31.113281 -39.722656 31.113281 -39.457031 31.246094 -39.191406 C 31.378906 -37.867188 31.246094 -36.675781 30.984375 -35.484375 C 30.851562 -33.632812 30.71875 -31.777344 30.453125 -29.921875 C 30.320312 -27.671875 29.792969 -25.554688 29.660156 -23.304688 C 29.527344 -21.183594 29.128906 -19.199219 29.394531 -17.082031 C 29.527344 -16.683594 29.394531 -16.285156 29.261719 -15.886719 C 29.128906 -15.226562 29.128906 -14.695312 29.261719 -14.167969 C 29.394531 -13.242188 29.527344 -12.3125 29.527344 -11.386719 C 29.660156 -8.871094 31.246094 -3.839844 33.632812 -2.382812 C 35.085938 -1.191406 38.132812 0.398438 40.117188 0.398438 C 41.707031 -0.132812 43.164062 -1.457031 43.824219 -3.046875 C 44.089844 -3.574219 44.222656 -3.972656 44.488281 -4.371094 C 45.546875 -5.824219 46.605469 -7.148438 47.664062 -8.605469 C 47.929688 -8.871094 48.0625 -9.269531 47.929688 -9.664062 Z M 14.167969 -26.480469 C 14.300781 -26.613281 14.300781 -26.746094 14.433594 -26.878906 C 14.695312 -26.480469 14.300781 -26.613281 14.167969 -26.480469 C 14.167969 -26.347656 14.035156 -26.214844 14.035156 -26.082031 C 13.636719 -26.480469 14.167969 -26.347656 14.167969 -26.480469 Z M 18.933594 -34.160156 C 18.933594 -34.027344 18.933594 -33.894531 18.800781 -33.761719 C 18.535156 -34.160156 18.933594 -34.027344 19.066406 -34.160156 C 19.066406 -34.160156 19.066406 -34.292969 19.199219 -34.425781 C 19.464844 -34.160156 19.066406 -34.160156 18.933594 -34.160156 Z M 32.042969 -30.984375 C 31.777344 -32.703125 31.511719 -34.425781 32.308594 -35.882812 C 32.703125 -35.351562 32.835938 -34.691406 32.570312 -34.292969 C 32.308594 -33.367188 32.570312 -32.308594 32.308594 -31.378906 C 32.308594 -31.246094 32.175781 -31.113281 32.042969 -31.113281 C 32.4375 -29.261719 31.910156 -27.40625 32.042969 -25.554688 C 32.042969 -25.421875 32.042969 -25.289062 31.910156 -25.15625 C 31.246094 -23.964844 31.378906 -22.640625 31.511719 -21.316406 C 31.511719 -20.257812 31.246094 -19.332031 31.113281 -18.402344 C 31.113281 -18.007812 30.851562 -17.609375 30.984375 -17.476562 C 31.777344 -16.285156 30.984375 -15.359375 31.246094 -14.300781 C 31.378906 -13.242188 31.511719 -12.050781 31.644531 -10.988281 C 31.644531 -9.929688 31.777344 -8.738281 31.910156 -7.679688 C 31.910156 -7.679688 31.910156 -7.546875 31.777344 -7.414062 C 31.378906 -7.414062 30.984375 -7.945312 30.984375 -8.078125 C 30.851562 -8.339844 30.851562 -8.605469 30.851562 -8.871094 C 30.984375 -9.929688 30.71875 -10.988281 30.453125 -12.050781 C 30.320312 -12.84375 30.71875 -13.636719 30.453125 -14.300781 C 30.1875 -14.960938 30.320312 -15.492188 30.453125 -16.152344 C 30.585938 -16.683594 30.054688 -17.210938 30.320312 -17.875 C 30.453125 -18.273438 30.320312 -18.800781 30.453125 -19.332031 C 30.453125 -19.464844 30.453125 -19.597656 30.453125 -19.726562 C 29.527344 -21.449219 30.1875 -23.039062 30.71875 -24.496094 C 30.851562 -25.023438 31.113281 -25.554688 30.71875 -26.214844 C 30.71875 -26.214844 30.71875 -26.480469 30.851562 -26.613281 C 31.246094 -27.671875 31.246094 -28.597656 31.113281 -29.792969 C 31.113281 -30.453125 31.378906 -30.851562 32.042969 -30.984375 Z M 10.855469 -43.824219 C 10.460938 -43.296875 10.460938 -43.296875 10.988281 -42.765625 C 11.519531 -42.238281 11.519531 -42.238281 11.253906 -41.707031 C 11.121094 -41.574219 10.988281 -41.441406 10.988281 -41.441406 C 10.855469 -41.441406 10.726562 -41.574219 10.460938 -41.839844 C 10.328125 -42.105469 10.726562 -42.105469 10.328125 -41.972656 C 10.195312 -41.972656 10.195312 -41.839844 10.0625 -41.707031 C 10.0625 -41.441406 10.0625 -41.179688 10.195312 -40.914062 C 10.988281 -39.722656 10.460938 -38.664062 10.195312 -37.601562 C 9.929688 -36.808594 9.664062 -36.015625 9.664062 -35.085938 C 9.53125 -34.425781 9.402344 -33.632812 8.339844 -33.5 C 7.945312 -33.5 7.945312 -33.101562 8.078125 -32.703125 C 8.339844 -32.4375 8.605469 -32.042969 8.605469 -31.511719 C 8.472656 -31.378906 8.339844 -31.113281 8.078125 -31.113281 C 8.210938 -30.71875 8.339844 -30.1875 7.679688 -30.054688 C 8.078125 -28.863281 7.679688 -27.804688 7.414062 -26.746094 C 7.28125 -26.746094 7.148438 -26.746094 7.148438 -26.878906 C 7.015625 -27.011719 6.886719 -27.40625 6.621094 -27.277344 C 6.355469 -27.144531 6.089844 -26.878906 6.355469 -26.480469 C 6.621094 -26.082031 6.621094 -25.820312 6.222656 -25.421875 C 5.695312 -25.023438 5.824219 -25.023438 6.355469 -24.363281 C 6.886719 -23.964844 6.886719 -23.699219 6.488281 -23.4375 C 6.089844 -22.90625 5.296875 -22.640625 4.898438 -21.980469 C 4.765625 -21.847656 4.632812 -21.714844 4.632812 -21.582031 C 4.632812 -21.449219 4.765625 -21.316406 4.765625 -21.183594 C 4.765625 -21.183594 4.898438 -21.183594 5.03125 -21.183594 C 5.164062 -21.183594 5.429688 -21.316406 5.5625 -21.316406 C 5.695312 -21.316406 5.695312 -21.316406 5.824219 -21.183594 C 5.957031 -20.921875 5.695312 -20.523438 5.5625 -20.257812 C 5.5625 -20.125 5.296875 -19.992188 5.03125 -19.859375 C 4.371094 -19.464844 4.371094 -19.597656 4.5 -18.933594 C 4.632812 -18.667969 4.765625 -18.402344 4.898438 -18.140625 C 4.898438 -18.007812 4.898438 -17.742188 4.765625 -17.476562 C 4.632812 -17.34375 4.5 -17.210938 4.238281 -16.949219 C 4.105469 -17.210938 3.972656 -17.34375 3.707031 -17.609375 C 3.308594 -17.476562 3.574219 -17.082031 3.441406 -16.816406 C 3.308594 -16.417969 3.175781 -16.019531 3.046875 -15.625 C 3.046875 -15.359375 2.78125 -15.09375 2.78125 -14.828125 C 2.78125 -14.433594 2.78125 -14.035156 2.78125 -13.769531 C 2.914062 -13.636719 3.046875 -13.636719 3.175781 -13.503906 C 2.914062 -13.242188 2.914062 -13.636719 2.78125 -13.769531 C 2.515625 -13.636719 2.25 -13.371094 2.515625 -12.976562 C 2.914062 -12.445312 2.914062 -11.917969 2.648438 -11.386719 C 2.515625 -11.253906 2.515625 -10.855469 2.382812 -10.726562 C 1.058594 -9.796875 0.925781 -8.210938 0.132812 -7.015625 C -0.53125 -5.957031 -0.265625 -4.238281 -1.058594 -3.046875 C -1.191406 -2.78125 -1.589844 -2.25 -1.722656 -2.25 C -1.855469 -2.25 -1.984375 -2.515625 -1.722656 -3.441406 C -0.792969 -6.488281 0.53125 -8.339844 1.324219 -11.519531 C 1.722656 -12.84375 1.984375 -13.371094 1.722656 -14.960938 C 1.722656 -15.359375 2.382812 -17.609375 2.515625 -18.007812 C 4.898438 -25.421875 6.355469 -34.691406 7.546875 -42.238281 C 8.605469 -45.019531 12.179688 -57.066406 12.3125 -59.449219 C 12.3125 -60.773438 14.695312 -68.1875 14.695312 -69.644531 C 16.417969 -71.234375 18.140625 -84.605469 18.933594 -87.121094 C 19.726562 -90.433594 20.65625 -93.875 21.714844 -97.183594 C 21.714844 -97.449219 21.847656 -97.714844 22.113281 -97.714844 C 22.113281 -98.113281 21.980469 -98.375 21.980469 -98.773438 C 21.980469 -98.90625 22.113281 -98.90625 22.242188 -99.039062 C 22.242188 -98.90625 22.375 -98.90625 22.375 -98.773438 C 22.507812 -98.375 22.507812 -97.980469 21.980469 -97.847656 C 22.113281 -97.183594 22.242188 -96.523438 22.113281 -96.125 C 21.714844 -95.066406 21.980469 -94.140625 22.113281 -93.214844 L 21.980469 -93.214844 C 22.113281 -93.34375 22.375 -93.476562 22.375 -93.742188 C 22.375 -94.40625 22.773438 -94.933594 23.039062 -95.464844 C 23.566406 -95.199219 23.304688 -94.667969 23.4375 -94.140625 L 23.4375 -94.273438 C 24.097656 -94.007812 24.097656 -93.476562 23.964844 -92.949219 C 23.832031 -92.550781 23.566406 -92.285156 23.171875 -92.152344 C 22.90625 -92.019531 22.773438 -91.890625 23.039062 -91.625 C 23.304688 -91.09375 23.304688 -90.699219 23.304688 -90.167969 C 23.304688 -89.902344 23.039062 -89.769531 22.90625 -89.636719 C 22.90625 -89.375 23.039062 -88.976562 23.039062 -88.710938 C 23.039062 -88.050781 23.171875 -87.386719 22.242188 -87.386719 C 22.113281 -87.386719 21.980469 -87.386719 21.847656 -87.386719 C 21.582031 -86.859375 21.582031 -85.003906 21.582031 -84.34375 C 22.507812 -83.148438 21.183594 -80.503906 20.257812 -79.707031 C 20.257812 -79.441406 17.34375 -70.441406 17.34375 -68.453125 C 17.34375 -68.1875 15.359375 -59.316406 15.09375 -59.183594 C 15.09375 -59.183594 14.695312 -59.449219 14.566406 -59.449219 C 14.433594 -59.449219 14.300781 -59.582031 14.300781 -59.582031 C 14.433594 -59.183594 14.433594 -58.789062 14.960938 -58.523438 C 15.226562 -58.257812 15.09375 -57.859375 14.828125 -57.597656 C 13.902344 -57.066406 13.503906 -56.800781 13.769531 -55.875 C 13.769531 -55.609375 13.902344 -55.609375 14.167969 -55.742188 C 14.300781 -55.742188 14.433594 -55.742188 14.566406 -55.609375 C 14.566406 -55.476562 14.566406 -55.34375 14.566406 -55.210938 C 13.769531 -54.816406 13.371094 -54.285156 13.371094 -53.492188 C 13.371094 -52.960938 13.242188 -52.566406 13.503906 -51.902344 C 13.769531 -51.503906 13.636719 -51.109375 13.242188 -51.109375 C 13.109375 -51.109375 12.976562 -51.242188 12.84375 -51.242188 C 12.710938 -51.242188 12.3125 -50.84375 12.3125 -50.710938 C 12.445312 -49.519531 11.785156 -48.460938 12.050781 -47.269531 L 12.050781 -47.402344 C 12.179688 -47.136719 12.445312 -47.003906 12.445312 -46.871094 C 12.710938 -45.945312 12.179688 -45.28125 12.050781 -44.488281 C 12.050781 -44.222656 12.179688 -44.488281 11.785156 -44.488281 C 11.652344 -44.488281 11.519531 -44.621094 11.519531 -44.621094 C 11.121094 -44.621094 10.988281 -44.089844 10.855469 -43.824219 C 10.988281 -43.695312 11.121094 -43.5625 11.253906 -43.5625 C 10.855469 -43.296875 10.988281 -43.695312 10.855469 -43.824219 Z M 16.816406 -29.128906 C 16.285156 -29.394531 16.019531 -29.527344 16.019531 -30.054688 C 15.886719 -30.453125 16.152344 -30.71875 16.417969 -30.71875 C 16.949219 -30.851562 16.816406 -30.320312 16.816406 -30.1875 C 16.949219 -29.792969 16.816406 -29.527344 16.816406 -29.128906 Z M 12.445312 -22.90625 C 12.445312 -22.640625 12.3125 -22.507812 12.050781 -22.507812 C 12.050781 -22.507812 11.917969 -22.640625 11.785156 -22.773438 C 11.917969 -22.90625 12.050781 -23.039062 12.179688 -23.171875 C 12.3125 -23.171875 12.3125 -23.039062 12.445312 -22.90625 Z M 32.570312 -20.523438 C 32.570312 -20.390625 32.4375 -20.257812 32.4375 -20.125 C 32.308594 -20.257812 32.175781 -20.523438 32.175781 -20.789062 C 32.175781 -21.050781 32.175781 -21.050781 32.308594 -21.183594 C 32.308594 -21.050781 32.4375 -20.921875 32.570312 -20.921875 C 32.570312 -20.789062 32.570312 -20.789062 32.570312 -20.523438 Z M 8.339844 -17.210938 C 8.472656 -17.210938 8.738281 -17.34375 8.871094 -17.34375 C 9.003906 -17.34375 9.269531 -17.210938 9.269531 -16.949219 C 9.003906 -16.816406 8.738281 -16.816406 8.472656 -16.949219 C 8.339844 -16.949219 8.339844 -17.082031 8.339844 -17.210938 Z M 32.175781 -38.664062 C 32.042969 -38.53125 32.042969 -38.53125 31.910156 -38.398438 C 31.910156 -38.53125 31.777344 -38.664062 31.777344 -38.792969 C 32.042969 -38.792969 32.042969 -38.792969 32.175781 -38.664062 Z M 13.109375 -49.519531 L 13.109375 -49.785156 Z M 23.304688 -97.054688 L 23.4375 -97.054688 L 23.4375 -96.921875 Z M 17.875 -32.4375 L 18.007812 -32.4375 L 17.875 -32.175781 Z M 47.929688 -9.664062 C 48.0625 -9.796875 48.460938 -9.664062 48.195312 -10.0625 C 48.0625 -9.929688 48.0625 -9.796875 48.0625 -9.664062 Z M 15.757812 -60.507812 C 15.625 -60.90625 16.683594 -66.730469 16.417969 -66.601562 C 15.625 -66.46875 17.082031 -70.835938 17.082031 -71.367188 C 17.210938 -71.632812 20.523438 -85.667969 20.65625 -86.0625 C 20.65625 -86.195312 20.523438 -86.328125 20.390625 -86.460938 C 20.257812 -86.59375 19.859375 -86.328125 19.859375 -86.195312 C 19.859375 -85.136719 15.625 -66.730469 15.226562 -65.804688 C 14.960938 -65.277344 13.242188 -59.316406 13.503906 -58.789062 C 13.902344 -58.921875 13.769531 -59.449219 14.300781 -59.582031 C 14.300781 -59.714844 14.300781 -59.847656 14.433594 -59.847656 C 14.566406 -59.847656 14.828125 -59.714844 15.359375 -59.582031 C 15.492188 -59.582031 15.492188 -60.375 15.757812 -60.507812 Z M 21.449219 -91.625 C 21.183594 -90.828125 20.523438 -90.300781 21.183594 -89.109375 C 21.316406 -90.035156 22.242188 -90.566406 21.449219 -91.625 Z M 12.3125 -52.035156 C 12.3125 -52.300781 12.179688 -52.566406 11.917969 -52.695312 C 11.917969 -52.695312 11.785156 -52.695312 11.652344 -52.695312 C 11.652344 -52.566406 11.519531 -52.300781 11.519531 -52.035156 C 11.519531 -51.902344 11.785156 -51.769531 11.785156 -51.636719 C 12.050781 -51.769531 12.179688 -51.902344 12.3125 -52.035156 Z M 9.003906 -36.148438 C 9.003906 -36.277344 8.871094 -36.277344 8.738281 -36.277344 C 8.738281 -36.148438 8.738281 -36.015625 8.871094 -35.882812 C 8.871094 -35.882812 9.003906 -36.015625 9.003906 -36.148438 Z M 8.210938 -30.984375 C 8.078125 -31.246094 8.078125 -31.378906 8.078125 -31.511719 C 7.945312 -31.644531 7.945312 -31.777344 7.8125 -31.910156 C 7.679688 -31.777344 7.679688 -31.644531 7.679688 -31.511719 C 7.546875 -31.378906 7.546875 -31.246094 7.546875 -30.984375 C 7.8125 -30.984375 7.945312 -30.984375 8.210938 -30.984375 Z M 12.84375 -56.800781 C 12.710938 -56.667969 12.710938 -56.535156 12.710938 -56.40625 C 12.710938 -56.273438 12.84375 -56.273438 12.84375 -56.273438 C 12.84375 -56.273438 12.976562 -56.40625 12.976562 -56.535156 C 12.976562 -56.535156 12.84375 -56.667969 12.84375 -56.800781 Z M 11.519531 -45.546875 C 11.519531 -45.8125 11.519531 -45.945312 11.253906 -46.078125 C 11.121094 -45.8125 11.253906 -45.414062 11.519531 -45.546875 Z M 7.679688 -31.113281 C 7.015625 -30.585938 7.015625 -30.453125 7.8125 -30.054688 C 7.679688 -30.320312 7.679688 -30.71875 7.679688 -31.113281 Z M 22.90625 -89.636719 C 22.90625 -89.902344 22.90625 -90.433594 22.507812 -90.433594 C 22.507812 -90.300781 22.375 -90.167969 22.375 -90.167969 C 22.507812 -89.902344 22.640625 -89.769531 22.90625 -89.636719 Z M 21.050781 -87.519531 C 20.921875 -87.652344 20.921875 -87.785156 20.65625 -87.785156 C 20.65625 -87.652344 20.65625 -87.519531 20.789062 -87.386719 C 20.789062 -87.386719 20.921875 -87.519531 21.050781 -87.519531 Z M 23.4375 -94.140625 C 23.171875 -94.140625 23.039062 -94.007812 23.039062 -93.742188 C 23.039062 -93.609375 23.171875 -93.476562 23.304688 -93.34375 C 23.4375 -93.742188 23.4375 -94.007812 23.4375 -94.273438 Z M 9.003906 -40.515625 L 8.871094 -40.515625 L 8.871094 -40.382812 Z M 9.664062 -43.03125 L 9.796875 -43.03125 L 9.664062 -43.164062 Z M 12.050781 -47.269531 C 11.917969 -47.269531 11.519531 -47.402344 11.785156 -47.003906 C 11.917969 -47.136719 11.917969 -47.269531 12.050781 -47.402344 Z M 12.3125 -53.890625 C 12.179688 -53.890625 11.785156 -53.890625 12.179688 -53.625 C 12.179688 -53.757812 12.3125 -53.890625 12.3125 -54.019531 Z M 12.3125 -54.019531 C 12.445312 -54.019531 12.84375 -53.890625 12.578125 -54.285156 C 12.445312 -54.152344 12.445312 -54.019531 12.3125 -53.890625 Z M 7.414062 -35.351562 L 7.414062 -35.484375 L 7.28125 -35.351562 Z M 22.242188 -88.976562 L 22.113281 -88.976562 L 22.242188 -88.710938 Z M 22.113281 -93.214844 C 21.980469 -93.082031 21.582031 -93.214844 21.847656 -92.816406 C 21.847656 -92.949219 21.980469 -93.082031 21.980469 -93.214844 Z M 0.132812 -8.472656 L 0 -8.472656 L 0.132812 -8.339844 Z M 3.839844 -21.183594 L 3.839844 -21.050781 L 3.972656 -21.183594 Z M 5.03125 -25.289062 L 4.898438 -25.289062 L 4.898438 -25.15625 Z M 5.03125 -25.289062 "/></g></g></g><g fill="rgb(45.098877%, 45.098877%, 45.098877%)" fill-opacity="1"><g transform="translate(170.45961, 171.615953)"><g><path d="M 60.375 -48.328125 C 60.90625 -48.460938 61.039062 -48.195312 61.304688 -47.929688 C 62.097656 -47.269531 62.761719 -46.472656 63.554688 -45.8125 C 63.953125 -45.28125 64.480469 -44.886719 65.011719 -44.488281 C 65.144531 -44.355469 65.40625 -44.488281 65.539062 -44.621094 C 65.539062 -44.621094 65.671875 -44.886719 65.539062 -45.019531 C 65.40625 -45.28125 65.277344 -45.546875 65.011719 -45.8125 C 64.613281 -46.339844 64.085938 -46.738281 63.820312 -47.402344 C 63.15625 -48.59375 62.230469 -49.386719 61.566406 -50.445312 C 60.507812 -51.769531 58.789062 -52.960938 57.066406 -52.960938 C 56.667969 -52.960938 56.273438 -52.828125 55.875 -52.167969 C 55.609375 -51.636719 55.210938 -50.976562 55.082031 -50.3125 C 54.816406 -49.121094 54.550781 -48.0625 54.019531 -47.003906 C 53.492188 -45.8125 53.625 -44.488281 53.226562 -43.296875 C 52.960938 -42.632812 52.960938 -42.105469 53.359375 -41.574219 C 52.960938 -41.046875 52.433594 -40.515625 52.167969 -39.984375 C 52.035156 -39.855469 52.035156 -39.457031 52.035156 -39.324219 C 51.902344 -38.792969 51.902344 -38.398438 51.902344 -38 C 50.84375 -34.027344 49.785156 -30.054688 48.726562 -26.214844 C 48.59375 -25.6875 48.726562 -25.15625 48.726562 -24.757812 C 48.59375 -24.230469 48.0625 -23.699219 47.796875 -23.304688 C 47.003906 -21.714844 46.210938 -18.535156 45.945312 -16.949219 C 45.679688 -15.359375 44.621094 -13.902344 44.753906 -12.179688 C 44.753906 -11.917969 44.488281 -11.652344 44.355469 -11.386719 C 43.695312 -9.929688 42.898438 -8.472656 42.105469 -6.886719 C 41.308594 -5.164062 39.855469 -4.105469 38 -3.308594 C 37.734375 -3.308594 37.46875 -3.175781 37.339844 -3.308594 C 35.617188 -3.839844 34.027344 -4.5 33.367188 -6.222656 C 32.308594 -9.003906 31.246094 -11.917969 30.453125 -14.828125 C 30.320312 -15.09375 30.453125 -15.757812 30.320312 -15.886719 C 29.527344 -16.550781 29.660156 -17.476562 29.660156 -18.273438 C 29.394531 -20.125 29.128906 -23.171875 29.128906 -25.023438 C 28.996094 -27.011719 29.128906 -28.996094 29.128906 -30.851562 C 28.996094 -33.761719 29.394531 -36.410156 30.054688 -39.191406 C 30.054688 -39.589844 30.054688 -39.984375 29.792969 -40.382812 C 28.597656 -41.574219 27.40625 -42.105469 25.953125 -42.632812 C 25.6875 -42.632812 25.023438 -42.371094 25.023438 -41.972656 C 25.023438 -41.707031 24.890625 -41.308594 25.023438 -41.046875 C 25.15625 -39.722656 24.890625 -38.53125 24.363281 -37.601562 C 23.4375 -35.351562 22.773438 -33.101562 21.980469 -30.984375 C 21.714844 -30.320312 21.582031 -29.792969 21.316406 -29.261719 C 20.523438 -27.40625 19.597656 -25.554688 19.066406 -23.699219 C 18.535156 -22.113281 17.476562 -20.65625 17.082031 -19.066406 C 15.886719 -17.34375 15.226562 -15.359375 14.167969 -13.503906 C 13.503906 -12.3125 12.976562 -11.253906 12.179688 -10.328125 C 11.386719 -9.53125 10.726562 -8.605469 10.195312 -7.546875 C 9.53125 -6.355469 8.605469 -5.296875 7.8125 -4.105469 C 7.28125 -3.441406 6.753906 -2.914062 6.089844 -2.648438 L 4.105469 -1.457031 C 3.972656 -1.324219 3.839844 -1.324219 3.707031 -1.324219 C 3.574219 -1.324219 3.308594 -1.324219 3.175781 -1.457031 C 2.117188 -1.722656 1.589844 -2.382812 1.589844 -3.441406 C 1.722656 -4.105469 1.589844 -4.765625 1.589844 -5.429688 C 1.589844 -6.089844 0.925781 -6.621094 1.324219 -7.148438 C 1.855469 -7.945312 1.191406 -8.472656 1.191406 -9.136719 C 1.191406 -9.796875 1.058594 -10.59375 1.324219 -11.386719 C 1.589844 -11.785156 1.589844 -12.179688 1.589844 -12.578125 C 1.589844 -14.035156 1.855469 -15.359375 1.984375 -16.816406 C 2.382812 -18.535156 2.648438 -20.125 3.046875 -21.714844 C 3.308594 -22.90625 3.441406 -24.097656 3.707031 -25.289062 C 3.972656 -26.746094 3.839844 -28.335938 4.371094 -29.660156 C 4.632812 -30.851562 4.5 -32.042969 4.898438 -33.234375 C 5.429688 -34.425781 5.164062 -35.75 5.296875 -36.941406 L 5.296875 -38 C 6.089844 -39.722656 5.695312 -41.574219 5.695312 -43.429688 C 5.695312 -43.695312 5.695312 -43.957031 5.5625 -44.222656 C 4.765625 -45.28125 4.632812 -46.605469 4.632812 -47.796875 C 4.632812 -48.460938 3.839844 -48.460938 3.441406 -48.460938 C 3.046875 -48.195312 2.648438 -47.796875 2.648438 -47.269531 C 2.648438 -45.546875 2.78125 -43.957031 2.515625 -42.371094 C 2.25 -41.179688 2.117188 -40.117188 2.117188 -38.925781 C 2.25 -37.601562 1.722656 -36.410156 1.589844 -35.085938 C 1.457031 -33.5 1.191406 -32.042969 0.925781 -30.453125 C 0.660156 -28.863281 0.398438 -27.40625 0.132812 -25.953125 C -0.53125 -22.507812 -1.324219 -18.535156 -1.324219 -14.960938 C -1.457031 -10.726562 -1.722656 -6.355469 -0.925781 -2.117188 C -0.53125 0.53125 0.660156 2.515625 2.648438 4.238281 C 3.175781 4.765625 3.707031 5.03125 4.238281 5.03125 C 4.5 5.03125 4.898438 4.898438 5.296875 4.632812 C 6.488281 3.839844 7.546875 3.046875 8.605469 2.25 C 8.871094 2.117188 9.003906 1.855469 9.136719 1.722656 C 9.929688 0.265625 10.855469 -1.058594 11.917969 -2.25 C 12.3125 -2.515625 12.445312 -2.914062 12.710938 -3.308594 C 13.503906 -4.632812 14.300781 -5.957031 15.09375 -7.414062 C 17.082031 -10.328125 18.667969 -13.769531 19.992188 -16.949219 C 20.921875 -18.800781 21.847656 -20.65625 22.640625 -22.640625 C 23.171875 -24.363281 23.832031 -25.953125 24.496094 -27.539062 C 24.628906 -27.804688 24.757812 -28.070312 24.890625 -28.203125 C 25.023438 -28.46875 24.890625 -28.996094 25.421875 -28.863281 C 25.6875 -27.011719 26.214844 -25.15625 26.082031 -23.304688 L 26.082031 -23.039062 C 26.878906 -21.714844 26.214844 -20.125 27.011719 -18.933594 C 26.878906 -17.875 27.539062 -16.949219 27.539062 -15.886719 C 27.539062 -14.035156 28.863281 -10.988281 29.792969 -9.402344 C 30.585938 -8.339844 30.984375 -7.28125 31.113281 -6.089844 C 31.113281 -2.515625 35.882812 1.589844 38.925781 2.78125 C 39.457031 2.914062 39.855469 3.046875 40.382812 3.046875 C 41.046875 3.046875 41.839844 2.78125 42.371094 1.984375 L 43.429688 0.925781 C 47.402344 -2.382812 50.976562 -13.371094 52.035156 -18.140625 C 52.167969 -19.066406 52.433594 -19.992188 52.695312 -20.789062 C 54.019531 -25.023438 55.082031 -29.128906 56.007812 -33.367188 C 56.40625 -34.824219 56.667969 -36.148438 57.066406 -37.601562 C 57.859375 -41.179688 59.050781 -44.886719 60.375 -48.328125 Z M 55.210938 -44.621094 C 55.210938 -44.621094 55.34375 -44.753906 55.476562 -44.753906 C 55.609375 -43.5625 55.476562 -42.503906 54.949219 -41.441406 C 54.683594 -40.648438 54.417969 -39.855469 54.550781 -39.058594 C 54.550781 -38.265625 54.417969 -37.46875 54.152344 -36.808594 C 53.890625 -36.410156 54.019531 -36.015625 54.019531 -35.351562 C 54.683594 -35.75 54.683594 -36.410156 55.34375 -36.542969 C 55.210938 -34.824219 54.417969 -33.234375 54.417969 -31.511719 C 54.285156 -31.113281 54.019531 -30.71875 53.757812 -30.1875 C 53.359375 -31.113281 53.359375 -31.910156 53.757812 -32.703125 C 54.019531 -33.101562 54.019531 -33.632812 54.019531 -34.160156 C 54.019531 -34.292969 53.890625 -34.292969 53.890625 -34.425781 C 53.757812 -34.558594 53.625 -34.425781 53.492188 -34.292969 C 53.492188 -33.761719 53.359375 -33.234375 52.960938 -32.96875 C 52.566406 -32.570312 52.433594 -32.042969 52.828125 -31.511719 C 53.09375 -31.246094 52.828125 -30.984375 52.695312 -30.585938 C 51.902344 -28.46875 51.503906 -26.082031 50.710938 -23.964844 C 50.445312 -23.566406 50.445312 -23.171875 50.445312 -22.640625 C 50.3125 -22.507812 50.445312 -22.113281 50.3125 -21.980469 C 49.785156 -20.789062 49.519531 -19.597656 49.121094 -18.402344 C 48.859375 -17.34375 48.195312 -16.285156 47.796875 -15.226562 C 47.664062 -15.09375 47.535156 -14.960938 47.402344 -14.960938 C 47.402344 -15.359375 47.402344 -15.625 47.535156 -15.886719 C 48.0625 -18.007812 48.726562 -19.992188 49.386719 -22.113281 C 50.179688 -24.757812 50.84375 -27.40625 51.503906 -30.054688 C 51.636719 -31.113281 51.902344 -32.175781 52.167969 -33.234375 C 52.300781 -33.5 52.433594 -33.894531 52.433594 -34.160156 C 52.433594 -36.148438 53.226562 -38 53.757812 -39.722656 C 54.152344 -41.441406 54.949219 -42.898438 55.210938 -44.621094 Z M 48.460938 -12.179688 C 48.460938 -12.179688 48.328125 -12.050781 48.195312 -12.050781 L 48.0625 -12.050781 C 48.0625 -13.242188 48.328125 -13.769531 48.859375 -14.960938 C 48.859375 -15.09375 48.988281 -15.09375 49.121094 -15.09375 L 49.386719 -14.960938 C 49.519531 -13.902344 49.121094 -12.976562 48.460938 -12.179688 Z M 46.339844 -9.003906 C 46.472656 -9.664062 46.738281 -10.195312 47.269531 -10.726562 L 47.535156 -10.726562 L 47.664062 -10.59375 C 47.535156 -9.929688 47.269531 -9.402344 47.003906 -8.738281 C 46.871094 -8.472656 46.339844 -8.210938 46.210938 -8.339844 C 45.945312 -8.605469 46.210938 -8.871094 46.339844 -9.003906 Z M 55.609375 -39.855469 C 55.742188 -40.382812 56.007812 -41.046875 56.273438 -41.707031 C 56.667969 -40.914062 56.535156 -40.25 56.40625 -39.457031 C 56.273438 -39.324219 56.007812 -39.058594 55.875 -39.058594 C 55.609375 -38.925781 55.476562 -39.457031 55.609375 -39.855469 Z M 46.339844 -11.917969 C 46.472656 -13.109375 46.871094 -14.035156 47.402344 -14.828125 C 47.402344 -13.769531 47.402344 -12.976562 46.738281 -12.179688 C 46.605469 -12.050781 46.472656 -11.917969 46.339844 -11.917969 Z M 55.609375 -46.078125 C 55.609375 -46.472656 55.609375 -46.738281 56.007812 -46.871094 C 56.140625 -47.269531 56.140625 -47.535156 56.140625 -47.929688 L 56.40625 -48.195312 C 56.40625 -48.0625 56.40625 -48.0625 56.535156 -47.929688 C 56.535156 -47.535156 56.535156 -47.136719 56.007812 -46.871094 L 56.007812 -45.679688 C 56.007812 -45.28125 55.875 -45.019531 55.609375 -44.886719 Z M 57.992188 -47.402344 C 58.125 -47.003906 57.992188 -46.738281 57.730469 -46.472656 L 57.464844 -46.472656 C 57.332031 -46.472656 57.199219 -46.605469 57.332031 -46.871094 C 57.332031 -47.003906 57.464844 -47.269531 57.597656 -47.535156 C 57.730469 -47.664062 57.859375 -47.664062 57.859375 -47.535156 C 57.992188 -47.535156 57.992188 -47.402344 57.992188 -47.402344 Z M 56.933594 -43.5625 C 57.066406 -43.429688 57.066406 -42.765625 56.800781 -42.632812 L 56.667969 -42.632812 C 56.535156 -42.765625 56.535156 -43.429688 56.667969 -43.5625 Z M 46.078125 -10.988281 C 46.078125 -11.121094 45.945312 -11.253906 45.945312 -11.386719 L 46.339844 -11.785156 L 46.339844 -11.121094 C 46.210938 -11.121094 46.210938 -11.121094 46.078125 -10.988281 Z M 50.84375 -19.464844 C 50.710938 -19.199219 50.578125 -19.066406 50.445312 -18.933594 C 50.445312 -19.199219 50.445312 -19.332031 50.710938 -19.726562 C 50.710938 -19.597656 50.84375 -19.464844 50.84375 -19.464844 Z M 52.167969 -24.628906 L 52.167969 -24.890625 L 52.300781 -24.890625 Z M 22.773438 -26.878906 L 22.640625 -26.746094 L 22.640625 -26.878906 Z M 45.546875 -9.929688 L 45.546875 -10.0625 L 45.679688 -10.0625 Z M 19.726562 -19.859375 L 19.726562 -19.726562 L 19.597656 -19.726562 Z M 19.726562 -19.859375 "/></g></g></g><g fill="rgb(45.098877%, 45.098877%, 45.098877%)" fill-opacity="1"><g transform="translate(231.097956, 171.615953)"><g><path d="M 20.65625 -13.109375 C 20.789062 -13.242188 20.921875 -13.371094 21.050781 -13.503906 C 21.316406 -13.902344 21.316406 -14.695312 21.050781 -14.433594 C 20.921875 -14.300781 20.65625 -14.035156 20.523438 -13.769531 C 20.523438 -13.636719 20.65625 -13.371094 20.65625 -13.242188 C 19.199219 -12.976562 19.199219 -11.519531 18.535156 -11.121094 C 18.273438 -11.121094 18.140625 -10.988281 18.140625 -10.855469 C 18.273438 -10.855469 18.402344 -10.988281 18.535156 -10.988281 C 18.402344 -10.855469 18.273438 -10.59375 18.140625 -10.460938 C 18.140625 -10.460938 18.140625 -10.59375 18.140625 -10.726562 L 17.742188 -10.328125 C 17.742188 -10.328125 17.742188 -10.195312 17.875 -10.0625 C 16.285156 -7.679688 11.121094 -1.722656 8.605469 -1.191406 C 8.210938 -0.660156 7.015625 -2.515625 6.222656 -2.515625 C 6.089844 -2.78125 6.089844 -3.046875 5.824219 -3.175781 C 5.164062 -4.371094 5.03125 -5.5625 5.296875 -6.753906 C 5.296875 -7.414062 5.296875 -8.210938 5.429688 -8.738281 C 5.5625 -10.460938 5.429688 -12.179688 6.089844 -13.902344 C 6.222656 -14.167969 6.222656 -14.433594 5.957031 -14.695312 C 5.824219 -14.960938 5.824219 -15.226562 5.957031 -15.492188 C 6.621094 -16.285156 6.621094 -17.609375 6.753906 -18.667969 C 7.015625 -19.859375 6.886719 -21.050781 7.679688 -21.980469 C 7.414062 -23.304688 8.339844 -24.097656 8.605469 -25.421875 C 8.871094 -26.746094 9.796875 -30.585938 10.328125 -31.777344 C 12.445312 -36.277344 14.433594 -41.046875 15.359375 -45.945312 C 15.492188 -47.269531 14.566406 -48.988281 13.371094 -49.652344 C 13.109375 -49.652344 12.84375 -49.785156 12.578125 -49.785156 L 11.121094 -49.785156 C 10.855469 -49.785156 10.59375 -49.652344 10.328125 -49.519531 C 9.003906 -47.402344 8.210938 -45.148438 7.414062 -42.765625 C 6.886719 -40.914062 6.355469 -38.925781 5.695312 -37.074219 C 5.429688 -36.148438 5.03125 -35.484375 4.765625 -34.558594 C 3.707031 -30.984375 2.78125 -27.40625 1.722656 -23.964844 C 1.457031 -22.375 0.925781 -21.050781 0.792969 -19.726562 C 0.660156 -17.210938 0.265625 -14.695312 0 -12.179688 C -0.132812 -10.328125 -0.265625 -8.472656 0.265625 -6.488281 C 0.398438 -6.222656 0.398438 -5.824219 0.53125 -5.429688 C 0.660156 -4.371094 1.191406 -3.441406 1.855469 -2.648438 C 2.648438 -1.722656 3.441406 -0.660156 4.238281 0.265625 C 4.898438 1.191406 5.824219 1.855469 7.015625 2.25 C 7.414062 2.515625 7.945312 2.515625 8.472656 2.515625 C 10.726562 2.515625 13.769531 0.925781 15.226562 -1.058594 C 16.152344 -1.855469 15.886719 -2.117188 16.683594 -3.175781 C 17.476562 -3.972656 18.535156 -6.753906 18.140625 -8.078125 C 18.140625 -8.339844 18.007812 -8.605469 18.273438 -8.605469 C 18.535156 -8.472656 18.667969 -8.210938 18.933594 -8.078125 C 19.199219 -8.472656 18.800781 -9.003906 18.933594 -9.402344 C 19.066406 -9.929688 19.332031 -10.328125 19.597656 -10.855469 C 19.859375 -11.519531 20.523438 -12.3125 20.523438 -13.109375 Z M 13.769531 -60.113281 C 14.566406 -59.449219 15.625 -59.183594 16.683594 -58.65625 C 17.210938 -58.921875 17.875 -59.183594 18.535156 -59.449219 C 18.933594 -59.582031 19.066406 -59.980469 19.066406 -60.246094 C 19.464844 -61.566406 19.199219 -62.761719 19.726562 -63.953125 C 19.859375 -64.085938 19.726562 -64.214844 19.597656 -64.347656 C 19.332031 -64.613281 18.800781 -64.878906 18.402344 -64.878906 C 18.273438 -64.878906 18.140625 -64.878906 18.007812 -64.746094 C 16.816406 -63.953125 15.492188 -63.023438 14.433594 -62.097656 C 14.035156 -61.832031 13.769531 -61.4375 13.503906 -61.039062 C 13.371094 -60.773438 13.503906 -60.246094 13.769531 -60.113281 Z M 18.140625 -10.460938 C 18.140625 -10.328125 18.140625 -10.195312 18.140625 -10.195312 C 18.140625 -10.0625 18.007812 -10.0625 18.007812 -9.929688 C 18.007812 -10.195312 18.007812 -10.328125 18.140625 -10.460938 Z M 18.140625 -10.460938 "/></g></g></g><g fill="rgb(45.098877%, 45.098877%, 45.098877%)" fill-opacity="1"><g transform="translate(248.574399, 171.615953)"><g><path d="M 22.640625 -29.128906 C 23.171875 -30.585938 24.757812 -32.835938 26.214844 -34.027344 C 26.082031 -34.824219 26.082031 -34.953125 27.011719 -35.085938 C 26.878906 -35.617188 27.277344 -36.148438 27.539062 -36.542969 C 28.203125 -37.339844 28.996094 -38.132812 29.394531 -39.058594 C 29.394531 -39.324219 29.527344 -39.324219 29.660156 -39.457031 C 29.792969 -39.589844 29.921875 -39.855469 30.1875 -39.589844 C 30.320312 -39.589844 30.453125 -39.324219 30.453125 -39.191406 C 30.320312 -37.867188 30.1875 -36.410156 29.921875 -35.085938 C 29.660156 -33.234375 29.660156 -31.378906 29.261719 -29.527344 C 29.394531 -26.347656 28.46875 -23.304688 28.996094 -19.992188 C 29.128906 -19.859375 28.996094 -19.726562 28.996094 -19.726562 C 28.730469 -17.609375 28.996094 -15.492188 29.394531 -13.242188 C 29.792969 -11.253906 30.984375 -9.402344 32.175781 -7.546875 C 32.308594 -7.28125 32.4375 -7.015625 32.570312 -6.886719 C 34.027344 -5.824219 35.351562 -4.632812 36.808594 -3.707031 C 37.339844 -3.308594 38 -3.175781 38.664062 -3.175781 C 41.441406 -3.175781 45.414062 -6.089844 47.929688 -11.253906 C 48.460938 -12.050781 48.59375 -13.109375 48.195312 -13.109375 C 47.796875 -13.109375 47.136719 -12.578125 46.078125 -11.253906 C 44.089844 -7.8125 44.488281 -7.945312 41.179688 -6.222656 C 40.25 -5.695312 39.457031 -5.429688 38.792969 -5.429688 C 37.734375 -5.429688 36.808594 -6.222656 35.882812 -7.945312 C 35.351562 -9.402344 34.425781 -10.855469 34.824219 -12.445312 C 34.953125 -13.242188 34.425781 -14.300781 34.425781 -15.09375 C 34.558594 -18.140625 34.425781 -21.183594 34.824219 -24.230469 C 34.953125 -25.15625 34.558594 -26.082031 34.824219 -26.878906 C 35.484375 -28.335938 35.484375 -29.921875 35.617188 -31.378906 C 36.015625 -33.894531 36.410156 -36.277344 36.808594 -38.792969 C 37.074219 -40.25 37.074219 -41.972656 36.410156 -43.5625 C 35.75 -45.28125 35.21875 -45.8125 33.367188 -45.8125 L 32.835938 -45.8125 C 29.792969 -45.8125 26.878906 -41.308594 25.421875 -38.925781 C 24.097656 -36.675781 22.242188 -34.691406 20.921875 -32.4375 C 19.992188 -31.113281 19.066406 -29.792969 18.273438 -28.335938 C 16.949219 -26.082031 16.152344 -23.566406 14.566406 -21.449219 C 14.433594 -21.316406 14.433594 -21.316406 14.433594 -21.183594 C 13.371094 -18.800781 12.179688 -16.550781 10.855469 -14.300781 C 9.929688 -12.84375 9.402344 -10.988281 8.472656 -9.402344 C 6.886719 -6.753906 5.296875 -4.105469 3.574219 -1.457031 C 3.175781 -0.660156 2.648438 -0.132812 1.855469 -0.132812 C 1.722656 -0.53125 1.589844 -0.925781 1.589844 -1.324219 C 1.589844 -1.722656 1.722656 -1.984375 1.722656 -2.382812 C 2.117188 -4.632812 2.515625 -7.015625 3.046875 -9.269531 C 3.574219 -12.179688 4.105469 -15.226562 5.164062 -18.007812 C 5.695312 -19.464844 6.355469 -20.789062 6.621094 -22.375 C 6.886719 -23.964844 7.28125 -25.6875 8.078125 -27.144531 C 9.136719 -29.128906 9.796875 -31.378906 10.460938 -33.5 C 10.59375 -34.160156 12.3125 -39.457031 12.578125 -39.855469 C 12.050781 -40.648438 12.445312 -41.441406 11.917969 -42.105469 C 11.121094 -43.03125 10.328125 -43.824219 9.269531 -44.089844 C 9.003906 -44.222656 8.738281 -44.222656 8.472656 -44.222656 C 6.222656 -44.222656 4.765625 -38.664062 4.371094 -36.941406 C 4.238281 -36.148438 4.105469 -35.21875 3.839844 -34.292969 C 2.648438 -30.851562 1.457031 -27.539062 0.53125 -23.964844 C 0.265625 -22.773438 0.132812 -21.449219 -0.660156 -20.390625 C -1.191406 -17.476562 -2.117188 -14.695312 -2.515625 -11.785156 C -3.046875 -8.871094 -3.707031 -5.957031 -3.707031 -2.78125 C -3.707031 -1.984375 -3.707031 -1.191406 -3.574219 -0.398438 C -3.308594 0.660156 -2.648438 1.589844 -1.589844 2.25 C -0.925781 2.78125 -0.265625 3.175781 0.398438 3.707031 C 1.058594 4.371094 1.722656 4.632812 2.515625 4.632812 C 2.914062 4.632812 3.441406 4.5 3.839844 4.371094 C 4.238281 4.105469 4.632812 3.707031 5.164062 3.441406 C 5.695312 3.046875 5.03125 2.515625 5.296875 2.25 C 5.824219 1.324219 6.089844 0.398438 6.355469 -0.53125 C 6.621094 -1.058594 6.886719 -1.457031 7.414062 -1.722656 C 8.210938 -2.25 9.003906 -2.914062 9.003906 -4.105469 C 9.003906 -4.371094 9.136719 -4.765625 9.402344 -4.898438 C 10.195312 -5.164062 10.328125 -5.824219 10.59375 -6.488281 C 11.121094 -7.679688 11.917969 -8.738281 12.578125 -9.796875 C 13.636719 -11.785156 14.695312 -13.769531 15.492188 -15.886719 C 16.417969 -18.140625 17.609375 -20.125 19.066406 -21.847656 L 19.066406 -22.90625 C 20.125 -23.171875 19.992188 -24.628906 21.449219 -24.496094 C 21.714844 -24.496094 21.714844 -24.890625 21.582031 -25.023438 C 20.921875 -25.6875 21.050781 -26.082031 21.582031 -26.613281 C 21.847656 -27.144531 22.507812 -27.144531 23.039062 -27.40625 C 23.304688 -27.539062 23.171875 -27.671875 22.640625 -28.203125 Z M 29.921875 -21.714844 C 30.054688 -23.699219 29.921875 -25.6875 30.453125 -27.539062 C 30.851562 -27.40625 31.246094 -27.277344 31.113281 -26.746094 C 30.984375 -26.082031 30.585938 -25.554688 30.71875 -24.757812 C 30.984375 -24.097656 30.1875 -23.4375 30.984375 -22.640625 C 30.984375 -22.242188 30.984375 -21.847656 30.851562 -21.316406 C 30.851562 -21.050781 30.585938 -20.921875 30.320312 -21.050781 C 30.054688 -21.183594 29.921875 -21.449219 29.921875 -21.714844 Z M 31.113281 -31.511719 C 31.246094 -31.511719 31.378906 -31.378906 31.511719 -31.246094 L 31.511719 -30.984375 C 30.984375 -30.320312 31.644531 -29.527344 31.246094 -28.730469 C 30.984375 -28.597656 30.851562 -28.46875 30.71875 -28.46875 C 30.71875 -28.46875 30.585938 -28.597656 30.585938 -28.730469 C 30.585938 -29.660156 30.585938 -30.453125 30.71875 -31.378906 C 30.71875 -31.511719 30.984375 -31.511719 31.113281 -31.511719 Z M 31.511719 -33.367188 C 31.644531 -33.367188 31.777344 -33.234375 32.042969 -33.101562 L 32.042969 -32.835938 C 31.777344 -32.703125 31.378906 -32.570312 31.113281 -32.308594 C 30.984375 -32.308594 30.851562 -32.4375 30.851562 -32.570312 C 30.71875 -32.835938 30.851562 -33.101562 31.113281 -33.367188 Z M -0.53125 -11.785156 C -0.660156 -11.652344 -0.925781 -11.519531 -1.058594 -11.386719 C -1.058594 -11.253906 -1.191406 -11.121094 -1.191406 -11.121094 C -1.589844 -11.386719 -1.058594 -11.253906 -1.058594 -11.386719 C -1.058594 -11.652344 -1.191406 -11.917969 -1.058594 -12.050781 C -0.925781 -12.3125 -0.792969 -12.578125 -0.53125 -12.710938 C -0.265625 -12.84375 -0.265625 -12.050781 -0.53125 -11.785156 Z M 0 -15.625 C 0.132812 -15.492188 0.132812 -15.359375 0.265625 -15.226562 C 0.132812 -15.09375 0 -14.960938 0 -15.09375 C -0.132812 -15.226562 -0.132812 -15.359375 -0.132812 -15.492188 Z M 2.515625 -23.699219 L 2.382812 -23.964844 L 2.648438 -23.832031 Z M -1.324219 -8.210938 L -1.191406 -8.339844 L -1.191406 -8.210938 Z M 3.308594 -25.820312 L 3.175781 -25.6875 L 3.175781 -25.820312 Z M 31.246094 -34.425781 L 31.246094 -34.292969 L 31.113281 -34.292969 Z M 18.933594 -19.597656 L 18.800781 -19.726562 L 18.800781 -19.597656 Z M 18.933594 -19.597656 "/></g></g></g><g fill="rgb(45.098877%, 45.098877%, 45.098877%)" fill-opacity="1"><g transform="translate(292.927724, 171.615953)"><g><path d="M 8.738281 -27.804688 C 10.460938 -26.613281 12.445312 -25.6875 14.433594 -24.628906 C 13.902344 -24.097656 13.636719 -23.832031 13.503906 -23.4375 C 13.371094 -22.773438 13.109375 -22.113281 12.050781 -21.980469 C 11.386719 -21.980469 11.121094 -21.582031 10.726562 -21.316406 C 10.726562 -21.050781 10.460938 -20.65625 10.328125 -20.65625 C 10.0625 -20.65625 9.796875 -20.789062 9.664062 -20.789062 C 8.871094 -20.789062 8.605469 -20.257812 8.339844 -19.726562 C 8.472656 -19.464844 8.339844 -19.332031 8.078125 -19.332031 C 6.886719 -18.933594 6.222656 -18.140625 5.5625 -17.476562 C 5.03125 -17.210938 4.632812 -16.949219 4.371094 -16.683594 C 2.117188 -15.757812 0.398438 -14.566406 -0.398438 -12.578125 C -1.324219 -11.386719 -1.589844 -10.0625 -2.648438 -8.605469 C -3.046875 -7.8125 -2.914062 -7.015625 -2.78125 -6.222656 C -2.117188 -3.441406 -0.925781 -1.058594 1.191406 0.925781 C 2.382812 2.78125 4.765625 3.441406 6.753906 3.707031 C 8.078125 3.707031 9.53125 3.441406 10.460938 3.046875 C 12.445312 2.382812 14.433594 1.589844 15.625 0 C 15.886719 -0.265625 16.285156 -0.53125 16.816406 -0.925781 C 19.597656 -2.914062 20.523438 -3.308594 21.847656 -5.695312 C 22.242188 -6.621094 22.90625 -7.414062 23.4375 -8.078125 C 23.699219 -8.472656 23.699219 -8.871094 23.964844 -9.402344 C 25.289062 -11.386719 25.554688 -13.636719 26.082031 -16.019531 L 26.082031 -16.683594 C 25.953125 -18.402344 24.496094 -20.257812 23.832031 -21.847656 C 23.566406 -22.90625 22.640625 -23.699219 21.847656 -24.363281 C 21.316406 -24.890625 21.449219 -25.15625 21.847656 -25.421875 C 22.113281 -25.6875 22.113281 -25.820312 22.507812 -25.953125 C 25.023438 -27.144531 37.207031 -29.921875 39.855469 -30.585938 C 40.515625 -30.71875 41.179688 -30.984375 41.707031 -31.246094 C 42.105469 -31.378906 42.105469 -31.511719 42.105469 -31.644531 C 41.839844 -31.910156 41.441406 -32.175781 41.046875 -32.175781 L 40.515625 -32.175781 C 39.191406 -31.378906 37.601562 -31.378906 36.277344 -30.851562 C 35.085938 -30.320312 24.363281 -28.070312 22.90625 -27.539062 C 22.242188 -27.40625 21.714844 -27.144531 21.050781 -26.746094 C 20.523438 -26.480469 19.992188 -26.347656 19.464844 -26.347656 C 18.800781 -26.347656 18.140625 -26.613281 17.476562 -27.011719 C 16.019531 -27.539062 14.035156 -28.730469 12.84375 -29.660156 C 11.386719 -30.585938 11.121094 -31.777344 11.652344 -32.835938 C 12.3125 -33.761719 13.109375 -34.691406 13.769531 -35.882812 C 14.167969 -37.074219 15.09375 -37.867188 16.683594 -38.398438 C 17.476562 -38.664062 18.402344 -39.191406 18.933594 -39.722656 C 20.523438 -40.78125 21.847656 -41.441406 23.699219 -41.707031 C 25.953125 -41.839844 27.40625 -42.632812 28.996094 -43.296875 C 29.660156 -43.429688 31.777344 -43.824219 32.175781 -43.824219 C 32.570312 -43.824219 33.234375 -43.824219 33.5 -43.957031 C 34.425781 -44.222656 34.824219 -44.488281 34.824219 -45.019531 C 34.824219 -45.679688 34.027344 -46.078125 33.5 -46.339844 C 32.308594 -46.738281 31.378906 -47.136719 30.1875 -47.136719 C 29.128906 -47.136719 28.203125 -47.269531 27.144531 -47.402344 C 24.757812 -47.796875 23.566406 -48.0625 22.640625 -48.0625 C 21.847656 -48.0625 21.183594 -47.796875 19.859375 -47.535156 C 18.800781 -47.269531 17.476562 -46.605469 16.417969 -46.210938 C 12.3125 -44.355469 9.269531 -41.574219 7.28125 -38 C 6.355469 -36.808594 5.957031 -34.953125 5.5625 -33.5 C 5.429688 -33.101562 5.5625 -32.703125 5.957031 -32.308594 C 6.621094 -31.511719 7.414062 -30.71875 7.414062 -29.527344 C 7.414062 -28.863281 8.210938 -28.335938 8.738281 -27.804688 Z M 18.800781 -21.582031 C 19.199219 -21.183594 19.199219 -20.789062 19.332031 -20.390625 C 19.726562 -17.742188 19.332031 -15.359375 18.007812 -13.109375 C 15.359375 -8.472656 11.121094 -3.707031 6.089844 -1.722656 C 5.5625 -1.589844 5.03125 -1.324219 4.371094 -1.324219 C 4.105469 -1.324219 3.839844 -1.324219 3.574219 -1.324219 C 3.046875 -1.324219 2.515625 -1.324219 1.722656 -1.722656 C 1.058594 -2.25 1.058594 -3.175781 0.398438 -3.972656 C 0.398438 -3.972656 0.398438 -4.105469 0.265625 -4.238281 C 1.058594 -5.824219 0.398438 -7.546875 1.058594 -9.402344 C 2.117188 -12.578125 5.03125 -16.417969 8.210938 -17.742188 C 8.472656 -18.007812 8.871094 -18.273438 9.53125 -18.535156 C 10.988281 -19.066406 12.179688 -19.992188 13.503906 -20.921875 C 14.300781 -21.582031 15.757812 -21.980469 16.683594 -22.640625 C 16.816406 -22.640625 16.949219 -22.773438 17.082031 -22.773438 C 17.742188 -22.773438 18.535156 -22.242188 18.800781 -21.582031 Z M 12.976562 -3.046875 C 12.84375 -3.046875 12.578125 -3.046875 12.84375 -3.308594 C 12.84375 -3.308594 12.3125 -3.441406 12.445312 -3.574219 C 12.976562 -5.164062 14.300781 -6.222656 15.625 -7.148438 C 15.886719 -7.28125 15.359375 -7.148438 15.886719 -7.015625 C 15.886719 -7.015625 16.285156 -6.621094 16.019531 -6.621094 C 15.09375 -5.5625 14.167969 -4.371094 12.976562 -3.046875 Z M 17.609375 -9.003906 C 17.34375 -8.605469 17.210938 -8.210938 16.683594 -7.945312 L 16.285156 -7.945312 L 16.152344 -8.078125 C 16.285156 -8.472656 16.417969 -9.003906 16.683594 -9.664062 C 16.816406 -9.929688 17.609375 -10.195312 17.609375 -9.929688 C 17.875 -9.664062 17.875 -9.53125 17.609375 -9.003906 Z M 8.605469 -0.265625 C 8.472656 -0.265625 8.339844 -0.265625 8.210938 -0.398438 C 8.210938 -1.058594 8.738281 -1.324219 9.796875 -1.324219 C 9.929688 -0.398438 9.929688 -0.398438 8.605469 -0.265625 Z M 18.800781 -10.988281 C 18.667969 -10.855469 18.535156 -10.726562 18.402344 -10.726562 C 18.273438 -10.726562 18.273438 -10.855469 18.007812 -10.855469 C 18.273438 -10.988281 18.402344 -11.253906 18.402344 -11.386719 L 18.667969 -11.386719 C 18.800781 -11.253906 18.800781 -10.988281 18.800781 -10.988281 Z M 7.015625 0 C 7.148438 -0.132812 7.148438 -0.265625 7.148438 -0.265625 L 8.078125 -0.265625 C 8.078125 -0.132812 8.078125 0 7.8125 0 Z M 11.785156 -3.175781 L 11.917969 -3.046875 L 11.785156 -3.046875 Z M 8.871094 1.457031 L 8.738281 1.457031 L 8.738281 1.324219 Z M 8.871094 1.457031 "/></g></g></g><g fill="rgb(45.098877%, 45.098877%, 45.098877%)" fill-opacity="1"><g transform="translate(323.9088, 171.615953)"><g><path d="M 32.4375 -6.355469 C 29.527344 -5.164062 24.363281 -3.839844 21.183594 -3.839844 L 19.726562 -3.839844 C 18.273438 -3.839844 17.476562 -4.238281 16.152344 -4.898438 C 15.757812 -5.164062 15.226562 -5.5625 15.09375 -5.957031 C 14.433594 -6.886719 13.902344 -7.945312 13.769531 -9.003906 C 13.109375 -11.519531 13.109375 -16.019531 13.371094 -18.535156 C 13.636719 -19.992188 14.035156 -21.449219 13.769531 -23.039062 C 14.300781 -24.097656 13.636719 -25.289062 13.242188 -26.347656 C 13.109375 -26.613281 12.976562 -26.878906 12.976562 -27.011719 C 13.242188 -27.539062 13.636719 -27.9375 14.167969 -28.203125 C 15.886719 -29.527344 17.742188 -30.851562 19.464844 -32.308594 C 21.316406 -33.894531 23.304688 -35.351562 25.289062 -36.808594 C 25.554688 -36.941406 25.820312 -37.074219 25.953125 -37.207031 C 27.804688 -38.925781 29.921875 -40.382812 32.175781 -41.707031 C 33.101562 -42.238281 33.5 -43.03125 33.632812 -44.089844 C 33.632812 -44.488281 33.632812 -44.753906 33.367188 -45.019531 C 33.101562 -45.414062 32.835938 -45.945312 32.570312 -46.339844 C 32.175781 -47.003906 31.511719 -47.402344 30.71875 -47.402344 C 30.585938 -47.402344 30.320312 -47.269531 30.1875 -47.269531 C 28.335938 -46.605469 26.613281 -45.8125 25.15625 -44.488281 C 24.496094 -43.695312 23.699219 -43.164062 23.039062 -42.632812 C 21.847656 -41.707031 20.789062 -40.78125 19.726562 -39.855469 C 18.667969 -39.058594 17.742188 -38.265625 16.683594 -37.339844 C 14.695312 -35.617188 10.988281 -32.703125 8.738281 -31.378906 C 8.472656 -31.246094 8.210938 -31.511719 8.210938 -31.777344 C 8.605469 -31.910156 9.003906 -32.308594 9.003906 -32.835938 C 9.003906 -33.894531 9.269531 -34.824219 9.796875 -35.617188 C 9.929688 -35.75 10.0625 -36.015625 10.0625 -36.277344 C 10.328125 -37.734375 10.460938 -39.324219 10.726562 -40.78125 C 10.726562 -41.046875 10.460938 -41.441406 10.195312 -41.308594 C 10.0625 -41.308594 9.929688 -41.308594 9.796875 -41.179688 C 9.53125 -40.515625 9.402344 -39.855469 9.136719 -39.058594 C 8.472656 -39.324219 8.339844 -39.855469 8.339844 -40.515625 C 8.339844 -40.648438 8.472656 -40.914062 8.472656 -41.046875 C 9.136719 -42.105469 10.0625 -45.945312 10.0625 -47.269531 C 10.195312 -48.859375 11.519531 -54.816406 12.976562 -55.875 C 12.84375 -56.273438 12.179688 -56.800781 12.445312 -57.332031 C 13.242188 -59.050781 14.960938 -66.996094 15.492188 -68.851562 C 15.625 -69.378906 15.625 -69.910156 16.152344 -70.042969 L 16.152344 -70.175781 C 16.816406 -69.246094 15.492188 -62.628906 14.695312 -61.699219 C 14.167969 -61.039062 14.300781 -59.980469 13.636719 -59.316406 C 13.503906 -59.050781 13.769531 -58.65625 13.769531 -58.257812 C 13.769531 -58.125 14.035156 -57.859375 14.035156 -57.597656 C 13.371094 -53.757812 12.445312 -49.652344 10.726562 -46.210938 C 11.386719 -45.148438 10.59375 -44.355469 10.460938 -43.429688 C 10.460938 -43.03125 10.460938 -42.632812 10.855469 -42.105469 C 11.253906 -43.5625 11.652344 -44.886719 11.917969 -46.339844 C 12.445312 -48.859375 14.433594 -56.535156 15.359375 -59.183594 C 15.625 -59.980469 15.757812 -60.773438 15.757812 -61.566406 C 15.757812 -62.496094 17.609375 -69.246094 17.875 -69.910156 C 18.140625 -70.703125 18.273438 -71.367188 18.535156 -72.027344 C 18.933594 -73.21875 19.066406 -74.410156 19.332031 -75.601562 C 20.125 -78.382812 21.050781 -81.03125 21.714844 -83.8125 C 22.90625 -88.3125 24.230469 -92.683594 25.554688 -97.183594 C 25.953125 -98.90625 25.554688 -100.363281 24.097656 -101.6875 C 23.566406 -102.214844 23.171875 -102.746094 22.375 -102.746094 C 21.980469 -102.746094 21.449219 -102.480469 20.65625 -102.085938 C 19.597656 -101.421875 18.933594 -100.496094 18.667969 -99.4375 C 18.140625 -96.125 17.476562 -91.226562 16.152344 -88.183594 C 14.695312 -83.679688 13.636719 -78.914062 12.710938 -74.277344 C 12.3125 -72.558594 11.785156 -70.96875 11.652344 -69.246094 C 11.519531 -68.320312 9.402344 -61.4375 9.402344 -60.375 C 9.402344 -59.316406 9.402344 -58.390625 8.738281 -57.597656 C 8.871094 -55.875 6.621094 -50.179688 6.355469 -48.460938 C 6.222656 -47.535156 6.222656 -46.472656 5.957031 -45.546875 C 4.765625 -42.105469 4.105469 -38.53125 3.308594 -34.953125 C 2.78125 -33.234375 2.25 -31.644531 1.984375 -29.792969 C 1.855469 -28.46875 1.191406 -27.277344 0.792969 -26.082031 C 0.660156 -25.421875 0.265625 -24.890625 -0.265625 -24.628906 C -0.660156 -24.363281 -0.792969 -23.964844 -0.53125 -23.566406 C -0.132812 -22.90625 0 -22.507812 -0.265625 -21.847656 C -0.660156 -20.789062 -0.925781 -19.726562 -1.058594 -18.535156 C -1.855469 -15.09375 -2.648438 -11.785156 -3.441406 -8.339844 C -4.238281 -5.429688 -4.371094 -2.382812 -5.03125 0.660156 C -5.03125 1.191406 -4.898438 1.722656 -4.371094 1.984375 C -3.308594 2.78125 -1.984375 3.441406 -0.792969 4.238281 C -0.53125 3.574219 -0.398438 3.046875 -0.265625 2.515625 C 0.132812 0.132812 0.925781 -1.984375 1.722656 -4.238281 C 1.984375 -4.898438 2.25 -5.429688 2.25 -6.089844 C 2.117188 -7.28125 2.515625 -8.210938 2.78125 -9.136719 C 2.515625 -9.402344 2.25 -9.53125 1.855469 -9.796875 C 2.914062 -10.328125 3.308594 -11.386719 3.441406 -12.445312 C 3.441406 -12.84375 3.839844 -13.371094 3.972656 -13.769531 C 4.371094 -15.226562 4.632812 -16.683594 5.03125 -18.007812 C 5.03125 -18.140625 5.03125 -18.140625 4.898438 -18.273438 C 4.765625 -18.402344 4.632812 -18.402344 4.5 -18.273438 C 4.371094 -18.140625 4.238281 -18.007812 4.238281 -17.875 C 4.105469 -17.742188 3.972656 -17.742188 3.839844 -17.742188 C 3.707031 -17.742188 3.441406 -17.875 3.308594 -18.140625 C 3.175781 -18.273438 3.308594 -18.800781 3.574219 -18.933594 C 4.238281 -18.933594 5.296875 -19.066406 5.429688 -19.726562 C 5.695312 -20.921875 6.355469 -21.980469 6.886719 -23.039062 L 7.148438 -23.039062 C 7.28125 -22.90625 7.546875 -22.90625 7.546875 -22.773438 C 7.679688 -22.375 7.679688 -21.980469 7.679688 -21.714844 C 7.28125 -20.390625 7.546875 -19.066406 7.679688 -17.742188 C 7.679688 -16.550781 8.078125 -15.359375 7.679688 -14.300781 L 7.679688 -13.769531 C 8.339844 -12.84375 8.210938 -11.917969 8.339844 -10.988281 C 8.472656 -10.726562 8.605469 -10.328125 8.738281 -10.0625 C 9.664062 -8.472656 10.460938 -6.753906 12.050781 -5.5625 C 13.109375 -4.765625 13.902344 -3.839844 14.433594 -2.648438 C 14.960938 -1.589844 17.742188 -0.792969 18.667969 -0.792969 C 18.667969 -0.792969 18.800781 -0.792969 18.933594 -0.792969 C 19.859375 -0.792969 20.65625 -0.792969 21.582031 -0.792969 C 21.980469 -0.792969 22.507812 -0.792969 22.90625 -0.792969 C 24.097656 -0.792969 25.023438 -0.925781 25.820312 -1.722656 C 26.347656 -2.117188 26.878906 -2.382812 27.539062 -2.382812 C 28.335938 -2.382812 28.996094 -2.382812 29.660156 -2.914062 C 30.1875 -3.441406 31.113281 -3.441406 31.378906 -4.371094 C 31.378906 -4.632812 31.910156 -4.765625 32.175781 -4.765625 C 32.96875 -4.765625 33.632812 -5.164062 34.292969 -5.5625 C 34.824219 -5.824219 35.351562 -6.089844 36.015625 -6.355469 C 37.207031 -6.753906 38.398438 -7.148438 39.058594 -8.472656 C 39.191406 -8.738281 39.589844 -8.871094 39.855469 -9.003906 Z M 8.078125 -32.308594 C 8.210938 -32.175781 8.078125 -31.910156 8.210938 -31.777344 C 7.679688 -31.777344 7.148438 -31.777344 7.28125 -30.984375 C 7.28125 -30.851562 7.148438 -30.585938 7.148438 -30.585938 C 6.753906 -30.585938 6.753906 -30.851562 6.753906 -31.113281 C 6.488281 -32.175781 6.886719 -33.234375 7.148438 -34.292969 C 7.148438 -34.425781 7.414062 -34.558594 7.679688 -34.691406 C 7.679688 -34.824219 7.945312 -34.691406 8.078125 -34.691406 C 8.210938 -34.558594 8.339844 -34.425781 8.339844 -34.292969 C 8.339844 -34.027344 8.210938 -33.894531 8.078125 -33.761719 C 7.679688 -33.367188 7.679688 -32.835938 8.078125 -32.308594 Z M 8.472656 -37.734375 C 8.472656 -37.867188 8.605469 -37.867188 8.871094 -37.867188 C 9.003906 -37.601562 9.402344 -37.339844 9.402344 -37.074219 C 9.269531 -36.542969 9.136719 -35.882812 8.605469 -35.484375 C 8.339844 -35.351562 7.945312 -35.484375 7.945312 -35.617188 C 7.546875 -36.410156 7.8125 -37.46875 8.472656 -37.734375 Z M 16.949219 -74.542969 C 17.210938 -75.074219 17.476562 -75.472656 17.875 -76.132812 C 18.402344 -75.074219 18.007812 -74.675781 17.476562 -74.277344 L 17.210938 -74.277344 C 16.949219 -74.277344 16.816406 -74.410156 16.949219 -74.542969 Z M 10.726562 -60.640625 C 10.855469 -60.246094 10.460938 -59.714844 10.195312 -59.714844 C 10.195312 -59.847656 10.0625 -59.847656 10.0625 -59.980469 C 9.929688 -60.375 10.0625 -60.640625 10.460938 -60.773438 C 10.460938 -60.90625 10.726562 -60.640625 10.726562 -60.640625 Z M 16.949219 -70.703125 C 17.082031 -70.441406 16.949219 -70.175781 16.683594 -70.175781 L 16.152344 -70.175781 L 16.152344 -70.570312 C 16.152344 -70.835938 16.285156 -71.101562 16.683594 -70.96875 C 16.816406 -70.96875 16.949219 -70.835938 16.949219 -70.703125 Z M 17.210938 -73.085938 C 17.34375 -72.824219 17.210938 -72.691406 16.816406 -72.691406 C 16.816406 -72.824219 16.550781 -72.957031 16.550781 -72.957031 C 16.683594 -73.21875 16.949219 -73.351562 17.082031 -73.484375 C 17.082031 -73.351562 17.210938 -73.21875 17.210938 -73.085938 Z M 12.84375 -69.910156 C 12.976562 -69.910156 12.976562 -69.777344 13.109375 -69.777344 C 12.976562 -69.511719 12.976562 -69.378906 12.976562 -69.246094 C 12.84375 -69.378906 12.710938 -69.378906 12.710938 -69.511719 C 12.84375 -69.644531 12.84375 -69.777344 12.84375 -69.910156 Z M 18.800781 -76.925781 C 18.667969 -76.925781 18.535156 -76.792969 18.402344 -76.792969 C 18.402344 -76.925781 18.273438 -76.925781 18.273438 -77.058594 L 18.667969 -77.058594 Z M 7.148438 -46.738281 L 7.414062 -46.871094 L 7.414062 -46.738281 Z M 3.441406 -16.417969 L 3.574219 -16.285156 L 3.441406 -16.285156 Z M 8.738281 -29.527344 L 8.605469 -29.394531 L 8.605469 -29.527344 Z M 13.636719 -72.292969 L 13.503906 -72.425781 L 13.636719 -72.425781 Z M 4.238281 -32.4375 L 4.238281 -32.703125 Z M 4.238281 -32.4375 "/></g></g></g><g fill="rgb(45.098877%, 45.098877%, 45.098877%)" fill-opacity="1"><g transform="translate(360.715422, 171.615953)"><g><path d="M 4.765625 -2.78125 C 5.5625 -1.722656 6.621094 -0.792969 7.148438 0.53125 C 7.28125 0.925781 7.679688 1.058594 8.210938 1.058594 C 8.339844 1.058594 9.269531 0.925781 9.269531 0.660156 C 9.664062 -0.265625 10.328125 -0.53125 11.253906 -0.660156 C 11.519531 -0.660156 11.917969 -0.925781 12.050781 -1.191406 C 12.84375 -2.648438 12.578125 -4.371094 11.519531 -5.5625 C 11.121094 -6.089844 10.726562 -6.488281 10.195312 -6.886719 C 9.664062 -7.414062 9.136719 -7.679688 8.605469 -7.679688 C 7.945312 -7.679688 7.414062 -7.28125 6.886719 -6.488281 C 6.621094 -6.222656 6.488281 -5.824219 6.222656 -5.429688 C 5.824219 -4.5 5.296875 -3.707031 4.765625 -2.78125 Z M 4.765625 -40.25 C 5.5625 -39.191406 6.621094 -38.265625 7.148438 -36.941406 C 7.28125 -36.542969 7.679688 -36.410156 8.210938 -36.410156 C 8.339844 -36.410156 9.269531 -36.542969 9.269531 -36.808594 C 9.664062 -37.734375 10.328125 -38 11.253906 -38.132812 C 11.519531 -38.132812 11.917969 -38.398438 12.050781 -38.664062 C 12.84375 -40.117188 12.578125 -41.839844 11.519531 -43.03125 C 11.121094 -43.5625 10.726562 -43.957031 10.195312 -44.355469 C 9.664062 -44.886719 9.136719 -45.148438 8.605469 -45.148438 C 7.945312 -45.148438 7.414062 -44.753906 6.886719 -43.957031 C 6.621094 -43.695312 6.488281 -43.296875 6.222656 -42.898438 C 5.824219 -41.972656 5.296875 -41.179688 4.765625 -40.25 Z M 4.765625 -40.25 "/></g></g></g></svg>